/* XPM */
static char *_b74f41690f7417583630dda20bc1aa1[] = {
/* columns rows colors chars-per-pixel */
"128 128 78 1 ",
"  c #020002",
". c #4A2400",
"X c #00004A",
"o c #7F3F7F",
"O c #7F407F",
"+ c #B45B00",
"@ c #BF603F",
"# c #DF721F",
"$ c #EF7B0F",
"% c #F77D06",
"& c #FD7E01",
"* c #F37A0B",
"= c #E77317",
"- c #EB7513",
"; c #EC7812",
": c #E3731B",
"> c #C05F3E",
", c #CF672F",
"< c #D76C27",
"1 c #DB6E23",
"2 c #D2692C",
"3 c #DE7020",
"4 c #C76437",
"5 c #CA6534",
"6 c #CD6932",
"7 c #C3613B",
"8 c #AF574F",
"9 c #AF594F",
"0 c #BA5D44",
"q c #B35A4B",
"w c #AA5554",
"e c #A3525B",
"r c #BD6041",
"t c #8F476F",
"y c #8F486F",
"u c #9B4D63",
"i c #934A6B",
"p c #8B4573",
"a c #83417B",
"s c #FF8000",
"d c #FF8900",
"f c #0000B4",
"g c #3F1FBF",
"h c #3F20BF",
"j c #5F2F9F",
"k c #6F368F",
"l c #773B87",
"z c #7C3D82",
"x c #73398C",
"c c #602F9E",
"v c #673397",
"b c #6C3692",
"n c #63319B",
"m c #401FBE",
"M c #572BA7",
"N c #5A2DA4",
"B c #5027AE",
"V c #5429AB",
"C c #4724B7",
"Z c #4B25B3",
"A c #4422BA",
"S c #1F0FDF",
"D c #2F17CF",
"F c #371BC7",
"G c #3A1DC4",
"H c #3319CB",
"J c #2713D7",
"K c #2A15D4",
"L c #2311DB",
"P c #0F07EF",
"I c #170BE7",
"U c #1B0DE3",
"Y c #1007EE",
"T c #1309EB",
"R c #0703F7",
"E c #0B05F3",
"W c #0000FF",
"Q c None",
/* pixels */
"QQQQQQQQQQQQQQQQQQQQQQQQQQQQQQQQQQQQQQQQQQQQQQQQQQQQsssss&ss&sss&sssss&sssssQQQQQQQQQQQQQQQQQQQQQQQQQQQQQQQQQQQQQQQQQQQQQQQQQQQQ",
"QQQQQQQQQQQQQQQQQQQQQQQQQQQQQQQQQQQQQQQQQQQQQQQQ&ss&ss&&&ssssssssssssss&&&ss&ss&QQQQQQQQQQQQQQQQQQQQQQQQQQQQQQQQQQQQQQQQQQQQQQQQ",
"QQQQQQQQQQQQQQQQQQQQQQQQQQQQQQQQQQQQQQQQQQQQss&ss&&s&&ssss&sss&sss&ss&ssss&&s&&ss&ssQQQQQQQQQQQQQQQQQQQQQQQQQQQQQQQQQQQQQQQQQQQQ",
"QQQQQQQQQQQQQQQQQQQQQQQQQQQQQQQQQQQQQQQQQQss&ss&sssssssssssssssssssssss&ssssssss&ss&ssQQQQQQQQQQQQQQQQQQQQQQQQQQQQQQQQQQQQQQQQQQ",
"QQQQQQQQQQQQQQQQQQQQQQQQQQQQQQQQQQQQQQQss&&&sssssssss&ss&sss&sss&sss&ssssss&sss&&sss&&&s&QQQQQQQQQQQQQQQQQQQQQQQQQQQQQQQQQQQQQQQ",
"QQQQQQQQQQQQQQQQQQQQQQQQQQQQQQQQQQQQQss&ssssssss&sssssssssssssssssssssssssssssssssssssss&ssQQQQQQQQQQQQQQQQQQQQQQQQQQQQQQQQQQQQQ",
"QQQQQQQQQQQQQQQQQQQQQQQQQQQQQQQQQQQss&&ssss&sssssss&ssssss&sss&sss&sss&ss&sss&ssss&ssssss&&ssQQQQQQQQQQQQQQQQQQQQQQQQQQQQQQQQQQQ",
"QQQQQQQQQQQQQQQQQQQQQQQQQQQQQQQQQs&&&ss&sssssss&ssssss&ssssssssssssssssssssssssssssssss&sss&&ssQQQQQQQQQQQQQQQQQQQQQQQQQQQQQQQQQ",
"QQQQQQQQQQQQQQQQQQQQQQQQQQQQQQQss&sss&sssssssssss&sss&sss&ss&ssssssssssssssssss&ssss&ssss&ssss&ssQQQQQQQQQQQQQQQQQQQQQQQQQQQQQQQ",
"QQQQQQQQQQQQQQQQQQQQQQQQQQQQQQss&sssssss&sss&ssssssssssssssssssssss&sss&ss&ssssss&sssssssssssss&ssQQQQQQQQQQQQQQQQQQQQQQQQQQQQQQ",
"QQQQQQQQQQQQQQQQQQQQQQQQQQQQss&&ss&ssssssss&sss&ssssssssssssss&s&sss&ssssssss&ssssssss&sssssss&s&&ssQQQQQQQQQQQQQQQQQQQQQQQQQQQQ",
"QQQQQQQQQQQQQQQQQQQQQQQQQQQs&&ssssssss&sssssssssss&sss&ssss&ssssssssssss&ssssssssss&ssssss&sssssss&&sQQQQQQQQQQQQQQQQQQQQQQQQQQQ",
"QQQQQQQQQQQQQQQQQQQQQQQQQss&ssss&sss&ssss&sss&ssssssssssssssssssss&sss&ssss&sss&sssss&sssssss&ssssss&ssQQQQQQQQQQQQQQQQQQQQQQQQQ",
"QQQQQQQQQQQQQQQQQQQQQQQQ&s&sss&sssssssssssssssss&sss&ssss&sss&ssssssssssssssssss&sssssss&ssssssssssss&s&QQQQQQQQQQQQQQQQQQQQQQQQ",
"QQQQQQQQQQQQQQQQQQQQQQQsssssssssss&sss&ssssssssssss&sss&sssssssssssssssss&sss&sssss&sssssss&sssssssssssssQQQQQQQQQQQQQQQQQQQQQQQ",
"QQQQQQQQQQQQQQQQQQQQQQ&s&sss&ssssssssssssss&ss&ssssssssssss&sss&s&sss&ssssssssssssssss&sssssss&ssss&ss&&s&QQQQQQQQQQQQQQQQQQQQQQ",
"QQQQQQQQQQQQQQQQQQQQQssss&ssssssss&sssssss&ss&ssss&sss&sssssssssssssss&s&ssssssss&sssssss&ssssss&ssssss&&&sQQQQQQQQQQQQQQQQQQQQQ",
"QQQQQQQQQQQQQQQQQQQQs&ssssss&ssssssssss&ssssssssssssssssss&sss&ssss&sssssssss&ssssss&sssssss&sssssssss&s&&d.QQQQQQQQQQQQQQQQQQQQ",
"QQQQQQQQQQQQQQQQQQQs&s&ssssssss&ssss&sssssssssssssssssssssssssss&sssssssss&ssssssssssss&sssssss&sssss&s&ss.  QQQQQQQQQQQQQQQQQQQ",
"QQQQQQQQQQQQQQQQQQs&ssssss&ssssss&ssssssss&sss&ss&sss&ss&sss&ssssssss&sssssssss&ss&sssssss&sssssssss&s%%d.   fQQQQQQQQQQQQQQQQQQ",
"QQQQQQQQQQQQQQQQQs&ssssss&ssssssss&ssssssssssssssssssss&sssssss&ssssss&s&sss&ssss&sssssss&sssssssss&s&sd.   fWWQQQQQQQQQQQQQQQQQ",
"QQQQQQQQQQQQQQQQs&sss&ssssss&ssssssssss&&sss&ssssss&ssssss&sssss&sssssssssssssssssss&sssssss&ssss&&s%ss.   fWWWWQQQQQQQQQQQQQQQQ",
"QQQQQQQQQQQQQQQs&ssssssssssssss&ssss&ssssss&sss&&ssss&sssssss&sssss&ssssss&sss&ssssssss&sssssss&s&s&sd.   fWRWWWWQQQQQQQQQQQQQQQ",
"QQQQQQQQQQQQQQs&sssssss&ss&ssssss&ssssssssssssssssssssss&sssssssssssss&sssssssssss&sssssss&sssss&s&ss.   fWWWWWWWWQQQQQQQQQQQQQQ",
"QQQQQQQQQQQQQss&sssssssss&ssssssss&ssssssss&sss&ss&ssssssss&sss&s&sss&sss&ss&sssssssssss&ssssss&s&sd.   fWWWWWWWWWWQQQQQQQQQQQQQ",
"QQQQQQQQQQQQQs&ss&sss&ssssss&ssssssssss&sssssssssssssss&ssssssssssssssssssssssss&ssss&ssssssss&s&ss.   fWRWWWWWWWWWQQQQQQQQQQQQQ",
"QQQQQQQQQQQQ&&sssssssssssssssss&ssss&ssss&sss&ssssss&ssss&sss&ssssssssssssssss&ssss&ssssss&ss&s&sd.   fWWWWWWWWWWWWWQQQQQQQQQQQQ",
"QQQQQQQQQQQssssssss&sss&ss&ssssss&sssssssssssssss&sssssssss&ssssss&sss&sss&ssssssssssss&ssss&s&%s.   fWWWWWWWWWWWWWWWQQQQQQQQQQQ",
"QQQQQQQQQQs&ssss&sssssssssss&ssssssssss&sss&ssssss&ssssssssssssssssssssssssssssss&sss&ss&ss&s&sd.   fWRWWWWWWWWWWWWWWWQQQQQQQQQQ",
"QQQQQQQQQQs&s&sssssss&sss&ssssssss&sssssssssss&ssssssss&s&sss&ss&sss&sss&ssss&ssssssssssss&s&ss.   fWWWWWWWWWWWWWWWWWWQQQQQQQQQQ",
"QQQQQQQQQss&ssssss&sssssssssss&ssssss&sss&sssssss&ss&ssssssssssssss&sss&ssssssssssssss&ss&s&sd.   fWWWWWWWWWWWWWWWWWWWWQQQQQQQQQ",
"QQQQQQQQQs&s&ss&sssssss&sss&ssss&sssssssssss&ssssssssssssss&sss&sssssssssss&sss&ss&sssss&s&ss.   fWRWWWWWWWWWWWWWWWWWWWQQQQQQQQQ",
"QQQQQQQQ&s&ssss&ssssss&ssssssssssssssssssssssssssssss&ss&ssssssssss&sss&ss&sss&s&ssssss&s%ss.   fWRWWWWWWWWWWWWWWWWWWWWWQQQQQQQQ",
"QQQQQQQQs&sssssssss&sssssss&ss&ss&s&&&&s&&&&sss&sssssssssssss&ssssssssssssssssssssssss&s&sd.   fWWWWWWWWWWWWWWWWWWWWWWWWQQQQQQQQ",
"QQQQQQQs&ssss&ss&sssssss&sssss&&&&&%ssssss&&%s&s&sssssssss&ssssss&sss&sssssssssssssss&s&sd.   fWWWWWWWWWWWWWWWWWWWWWWWWWWQQQQQQQ",
"QQQQQQsssss&sssssssss&ssssss&s&&&sddss%%%&sdds&&&s&sss&ssssssss&sssssssss&sss&ssssss&s%%s.   fWRWWWWWWWWWWWWWWWWWWWWWWWWWWQQQQQQ",
"QQQQQQs&sss&sss&ssssssssssss&%&ds=8kBGDULDBxe=dd&&&s&sss&sss&ssssss&sssssssssssssss&s&sd.   fWRWWWWWWWWWWWWWWWWWWWWWWWWWWWQQQQQQ",
"QQQQQQs&sssssssssss&ss&ss&s%&dsqAEWWWWWWWWWWWEBq%d&&s&s&sssssssssssssss&sss&sss&s&&s%ss.   fWWWWWWWWWWWWWWWWWWWWWWWWWWWWWWQQQQQQ",
"QQQQQssss&sss&sss&ssssss&s&sdqFWWWWRWWWWWWWRWWWWG7ds&s&&ss&sss&ss&ss&sss&sss&ssss&s&sd.   fWRWWWWWWWWWWWWWWWWWWWWWWWWWWWWWWQQQQQ",
"QQQQQs&sssssssssssss&ss&s&sskWWWRWWWRRWWWRRWWWRWWWbss&&&ssssssssssssssssssssssss&s&ss.   fWWWWWWWWWWWWWWWWWWWWWWWWWWWWWWWWWQQQQQ",
"QQQQss&ssssssss&ssssssss&d#GWWWWWRWWWWWWWWWWWWWWRWWG:d&&&sss&ssssssssss&sss&sss&s&sd.   fWWWWWWWWWWWWWWWWWWWWWWWWWWWWWWWWWWWQQQQ",
"QQQQ&&ssss&ssssssss&s&sss=DWRWWRWWWKbauwizcJWWWWWWRWJ1d&ssssssssss&sssssssssss&s&ss.   fWRWWWWWWWWWWWWWWWWWWWWWWWWWWWWWWWWWWQQQQ",
"QQQQs&s&sssss&ss&sssss&s%AWRWWWWRv,%dddddds%0nTWWWWRWJ=&&s&sss&ssssss&sss&sss&s&sd.   fWWWWWWWWWWWWWWWWWWWWWWWWWWWWWWWWWWWWWQQQQ",
"QQQs&sss&sssssssssss&&ssjWRWWWWG,dd&&%%&%&&sdd2GWWWWRWBd&&ssssss&sssssssssss&s&ss.   fWWWWWWWWWWWWWWWWWWWWWWWWWWWWWWWWWWWWWWWQQQ",
"QQQs&ssssss&sss&s&ss&&dwWRWWRWM%d%&&&ssss&s&&&ssaWWRWT7s&&ss&ssssss&sss&sss&s%ss.   fWRWWWWWWWWWWWWWWWWWWWWWWWWWWWWWWWWWWWWWWQQQ",
"QQQs&ssssssssssssss&&&%HWWWWWcd&&&&&s&sssss&&&%sdyWWY4d&ssssssssssssssssss&s&sd.   fWWWWWWWWWWWWWWWWWWWWWWWWWWWWWWWWWWWWWWWWWQQQ",
"QQs&ssss&ssss&ssss&&&duWWWWWD*s&s&&&ssssss&ssss&%daE4d&&&sssss&ss&sss&sss&s%sd.   fWWWWWWWWWWWWWWWWWWWWWWWWWWWWWWWWWWWWWWWWWWWQQ",
"QQsss&ssssssssssss&&&*JWWWWR5d&s&ssssss&ssssss&sss%3s%s&ssssssssssssssss&s%ss.   fWRWWWWWWWWWWWWWWWWWWWWWWWWWWWWWWWWWWWWWWWWWWQQ",
"QQs&ssssss&sssssss&&deWWWWWnd&&&sssssss&sss&sss&s&&d&&&&&sssssssss&ssss&s&sd.   fWWWWWWWWWWWWWWWWWWWWWWWWWWWWWWWWWWWWWWWWWWWWWQQ",
"QQ&ssssssssssss&ss&&sMWRWWR6s&ssss&sssssssssssss&s&&&&&ssssss&ssssssss&s&sd.   fWRWWWWWWWWWWWWWWWWWWWWWWWWWWWWWWWWWWWWWWWWWWWWQQ",
"Qs&sss&sssss&sss&s&&$IWWWWCs&&sssssss&sss&sss&ssssssssssss&ssssssssssss&ss.   fWWWWWWWWWWWWWWWWWWWWWWWWWWWWWWWWWWWWWWWWWWWWWWWWQ",
"Q&sssssss&ssssssss&d>WWWRWad%&ss&sssssssssssssssss&s&ssssssssss&s&sss&&&s.   fWWWWWWWWWWWWWWWWWWWWWWWWWWWWWWWWWWWWWWWWWWWWWWWWWQ",
"Qs&s&sssss&ssss&ss%dyWWWWW0d&sssssssss&ssss&ssssssssssssssssssssssss&s&d+   fWRWWWWWWWWWWWWWWWWWWWWWWWWWWWWWWWWWWWWWWWWWWWWWWWWQ",
"Qssssssssssssssss&&dxWRWWE=s&ssss&ssssssssssssssssssss&ssssssss&sss&&&d+   fWWWWWWWWWWWWWWWWWWWWWWWWWWWWWWWWWWWWWWWWWWWWWWWWWWWW",
"Qs&sss&sssss&ssss&ssMWWWWT*s&ss&ssssssssss&&&&ss&&ss&&&&s&ss&sss&s&s&d+   fWWWWWWWWWWWWWWWWWWWWWWWWWWWWWWWWWWWWWWWWWWWWWWWWWWWWW",
"ss&&sssss&sssssss&&sCWRWWJ%s&ssssss&sss&ssssdssssssssdss&&sssssss&s&d+   fWRWWWWWWWWWWWWWWWWWWWWWWWWWWWWWWWWWWWWWWWWWWWWWWWWWWWW",
"s&sssssssss&ssssss&sAWWWWD&s&sss&ssss&ss$---=---=;-----*&&&&ssss&&&d+   fWRWWWWWWWWWWWWWWWWWWWWWWWWWWWWWWWWWWWWWWWWWWWWWWWWWWWWW",
"s&ssss&sssssss&ss&&dVWRWWU*s&sssss&ss&ssCWYEEEEEEEEEEPR8d&s&&ss&s&d+   fWWWWWWWWWWWWWWWWWWWWWWWWWWWWWWWWWWWWWWWWWWWWWWWWWWWWWWWW",
"&&sssssss&sssssss&&svWWWWE$s&s&ssssss&s%LWWWWWWWWWWWWWW4d&ssss&s&d+   fWWWWWWWWWWRRWWWWWWWWWWWWWWWWWWWWWWWWWWWWWWWWWWWWWWWWWWWWW",
"ssss&sssssss&ssss&%dzWRWWR2d&sss&ssss&s-PWWRRWRWWWWWWWE=&&sss&s&d+   fWRWWWRRWWWWWWWWWWWRWWWWWWWWWWWWWWWWWWWWWWWWWWWWWWWWWWWWWWW",
"&s&sssssssssssssss%diWRWWWid&&sssss&s&s5WWWWWWWWWWWWWWK%&&ss&s&d+   fWWWWWWWWRJgBbbMCKWWWWWWWWWWWWWWWWWWWWWWWWWWWWWWWWWWWWWWWWWW",
"ssssss&sss&sss&sss&d2WWWRWNd&&&ssssss&d4FGGGGGGGFRWWRWnd&&s&&&d+   fWRWWWWEZi<&&sddds&<ejTWWWWWWWWWWWWWWWWWWWWWWWWWWWWWWWWWWWWWW",
"s&ssssssssssssssss&s%JWWWWP1s&&ss&sss&s&&&&&&&&d6WWWWWid%s&&&d+   fWWWWWRN1sdd&s&&&&&ssdd=iDWWWWWWWWWWWWWWWWWWWWWWWWWWWWWWWWWWWW",
"s&ss&sss&sss&sssss&&dvWWWWWld&s&ssss&s&ssssss&%daWWWWE3s&ss&d+   fWWWRWG4ds&%&&&s%&&&&&%&sd&uUWWWWWWWWWWWWWWWWWWWWWWWWWWWWWWWWWW",
"s&&sss&ssssssssssss&d0WWWWWP,d&&&ssss&s&s&&&&&&*JWWWWBs&&&&d+   fWRWWWnsd%&&&&&&sdssss&&&&&&d*nWWWWWWWWWWWWWWWWWWWWWWWWWWWWWWWWW",
"s&ssssssss&sss&sss&&&dBWRWWWD$s&s&&sssssss&s&&dOWWWRWed&s&d+   fWWWWWlss%s&&&dd*-251$%dd&%&&%deWWWWWWWWWWWWWWWWWWWWWWWWWWWWWWWWW",
"s&sssssssssssssss&ss&s0WWWWWWB*d&&&s&sss&s&&%dqWWWWWGs&&&d+   fWRWWWod&&s&&d*wNSEWWEYJv9-ds&%dOWRWWWWWWWWWWWWWWWWWWWWWWWWWWWWWWW",
"&ssss&ss&sss&sssss&&&&dvWWWWWWF:ds&%&s&s&&&sd8PWWWWWqd&%d+   fWRWWWVd&&&&sdeSWWWWWWWWWWWIp$d%dvWWWWWWWWWWWWWWWWWWWWWWWWWWWWWWWWW",
"sssssssssssssss&sss&s&s%GWRWWRWTa$ddssssdds:vWWWWWWbd&&d+   fWWWWWL:s&&&s%MWWWWWWWWWWWWWWWL8d&ZWWWWWWWWWWWWWWWWWWWWWWWWWWWWWWWWW",
"ss&ssss&ss&sssssssss&s&d1UWWWWWWWUje63;=,ejEWRWWRWH$s%d+   fWRWWWW0d&s&&$CWRRWWWWWWWWWWWWWWWasDWWWWWWWWWWWWWWWWWWWWWWWWWWWWWWWWW",
"ssss&sss&ssss&sss&sss&s&s2LWRWWWWWWWWRPEWWWWWWWWWL#s&d+   fWRWWWWCs&&&&dVWRWWWWWWWWWWWWWWWRWWNTWWWWWWWWWWWWWWWWWWWWWWWWWWWWWWWWW",
"s&ssssssssssssssssssss&s&d=gWWWWWWRWWWWWWRWWWWRWH#d%d+   fWWWWWWW0d&s&dyWWWWWWWWWWWWWWWWWWWWWWWWWWWWWWWWWWWWWWWWWWWWWWWWWWWWWWWW",
"ss&ssssssss&sss&sssssss&s&s*zEWWWRWWWWWWWWWRWWWv$s%d+   fWRWWWWWAs&&ss1YWWWWWWWWWWWWWWWWWWWWWWWWWWWWWWWWWWWWWWWWWWWWWWWWWWWWWWWW",
"Q&&sssssssssssssss&sssss&s&sd:bEWWWWWWWWWWWWWZ@ss&d+   fWWWWWWRWpd%&%dlWRWWWWWWWWWWWWWWWWWWWWWWWWWWWWWWWWWWWWWWWWWWWWWWWWWWWWWWW",
"Qs&ssssss&sss&ssssssss&ss&s&&sd=wnJPEWWRRUAa,sd&%d+   fWRWWWWWWW4d&&s;UWWWWWWWWWWWWWWWWWWWWWWWWWWWWWWWWWWWWWWWWWWWWWWWWWWWWWWWWW",
"Qs&ssss&ssssssss&sssssssss&ss&%sdd%*35@61*sdd&&&d+   fWWWWWWWWWS*&&&dwWWWWWWWWWWWWWWWWWWWWWWWWWWWWWWWWWWWWWWWWWWWWWWWWWWWWWWWWWQ",
"Q&sssssssss&ssssssss&sssssss&s&&&&ssssdssss%&&&d+   XWWWWWWWWWWMd&&%dlWRWWWWWWWWWWWWWWWWWWWWWWWWWWWWWWWWWWWWWWWWWWWWWWWWWWWWWWWQ",
"Qs&ss&sssssss&sss&ssssss&ssssss&s&s&&&&&&&sss&d+   XWWWWWWWWWRWld&&&&mWWWWWWWWWWWWWWWWWWWWWWWWWWWWWWWWWWWWWWWWWWWWWWWWWWWWWWWWWQ",
"QQs&sssss&ssssssssssss&ssss&ssssss&sssssss&s%d+   XRWRWWWWWWWRWad%&&%LWWWWWWWWWWWWWWWWWWWWWWWWWWWWWWWWWWWWWWWWWWWWWWWWWWWWWWWWQQ",
"QQs&sss&sss&sss&sss&sssssssssssss&sssssss&s&d+   XRWWWWWWWWWWWWid&&s$TWWWWWWWWWWWWWWWWWWWWWWWWWWWWWWWWWWWWWWWWWWWWWWWWWWWWWWWWQQ",
"QQs&ss&sssssss&sssssssssss&sss&sssssssss&s&d+   XWWWWWWWWWWWWWWwd&&s:EWWWWWWWWWWWWWWWWWWWWWWWWWWWWWWWWWWWWWWWWWWWWWWWWWWWWWWWWQQ",
"QQs&sssssss&ssssss&ssss&sssssssssss&sss&s%d+   XRWWWWWWWWWWWWWWed%&s:EWWWWWWWWWWWWWWWWWWWWWWWWWWWWWWWWWWWWWWWWWWWWWWWWWWWWWWWWQQ",
"QQQs&sss&sssssssssssssssssssssss&sssss&&&d+   XWWWWWWWWWWWWWWWWyd&&&*YWWWWWWWWWWWWWWWWWWWWWWWWWWWWWWWWWWWWWWWWWWWWWWWWWWWWWWWQQQ",
"QQQs&ssssssss&ss&sss&ssss&sss&sssssss&s&d+   XRWWWWWWWWWWWWWWRWOd%&&%LWWWWWWWWWWWWWWWWWWWWWWWWWWWWWWWWWWWWWWWWWWWWWWWWWWWWWWWQQQ",
"QQQs&sssssssss&ssssssss&ssssssssssss&s&d+   XRWWWWWWWWWWWWWWWRWbd&&&sCWWWWWWWWWWWWWWWWWWWWWWWWWWWWWWWWWWWWWWWWWWWWWWWWWWWWWWWQQQ",
"QQQQs&ss&sssssssss&ssssssss&sss&sss&&&d+   XWWWWWWWWWWWWWWWWWWWAs&&%dzWRWWWWWWWWWWWWWWWWWWWWWWWWWWWWWWWWWWWWWWWWWWWWWWWWWWWWQQQQ",
"QQQQ&&sssss&sssssssss&ss&sss&sssss&&&d+   XWWWWWWWWWWWWWWWWWWWWP=s&&d0WWWWWWWWWWWWWWWWWWWWWWWWWWWWWWWWWWWWWWWWWWWWWWWWWWWWWWQQQQ",
"QQQQss&sssssss&s&ssssssssssssssss&s&d+   XRWRWWWWWWWWWWWWWWWWWWW9d&&&sGWWWWWWWWWWWWWWWWWWWWWWWWWWWWWWWWWWWWWWWWWWWWWWWWWWWWWQQQQ",
"QQQQQs&ssssss&ssssssssss&sssssss&&&d+   XWWRWWWWWWWWWWWWWWWWWWRWbd%s&deWWWWWWWWWWWWWWWWWWWWWWWWWWWWWWWWWWWWWWWWWWWWWWWWWWWWQQQQQ",
"QQQQQsss&sssssssss&sss&ssssssss&s&d+   XRWWWWWWWWWWWWWWWWWWWWWWWT=s&&&sMWRWWWWWWWWWWWWWWWWWWWWWWWWWWWWWWWWWWWWWWWWWWWWWWWWWQQQQQ",
"QQQQQQs&sss&ssssssssssssss&sss&s&d+   XRWWWWWWWWWWWWWWWWWWWWWWWWWOd&sss;DWRWWWWWWWWWWWWWWWWWWWWWWWWWWWWWWWWWWWWWWWWWWWWWWWQQQQQQ",
"QQQQQQs&ssssss&s&sss&ssssssss&s%d+   XWRWWWWWWWWWWWWWWWWWWWWWWWWWI:s&sss:AWWRWWWWWWWWWWRWWEvPWWWWWWWWWWWWWWWWWWWWWWWWWWWWWQQQQQQ",
"QQQQQQss&s&ss&ssssssss&sssss&s&d+   XWWWWWWWWWWWWWWWWWWWWWWWWWWWWWVd&&&&d%zEWWWWWRRWWWWWWF41WWWWWWWWWWWWWWWWWWWWWWWWWWWWWWQQQQQQ",
"QQQQQQQs&sssssssss&ssssss&s&&&d+   XRWWWWWWWWWWWWWWWWWWWWWWWWWWWWWWad&&&&&d=aFEWWWWWWWUV0sd8WWWWWWWWWWWWWWWWWWWWWWWWWWWWWQQQQQQQ",
"QQQQQQQQs&ssssssssssssssss&s&d+   XWWWWWWWWWWWWWWWWWWWWWWWWWWWWWWWWWed%&&&&sds=8epote>%ss%diWWWWWWWWWWWWWWWWWWWWWWWWWWWWQQQQQQQQ",
"QQQQQQQQ&s&sss&s&ssss&sss&&&d+   XRWWWWWWWWWWWWWWWWWWWWWWWWWWWWWWWWWWpd&&&s&%&sddddddd&&%&dzWRWWWWWWWWWWWWWWWWWWWWWWWWWWQQQQQQQQ",
"QQQQQQQQQs&sssssssssssss&s&d+   XWWWWWWWWWWWWWWWWWWWWWWWWWWWWWWWWWWWWWv*ds%&&&&&&%%%%&&&%&dcWRWWWWWWWWWWWWWWWWWWWWWWWWWQQQQQQQQQ",
"QQQQQQQQQss&ssss&sss&ss&s%d+   XRWWWWWWWWWWWWWWWWWWWWWWWWWWWWWWWWWWWWWWLi%dss&%%&&&&%&sssd$FWWWWWWWWWWWWWWWWWWWWWWWWWWWQQQQQQQQQ",
"QQQQQQQQQQs&sssssss&ss&s&d+   XWWWWWWWWWWWWWWWWWWWWWWWWWWWWWWWWWWWWWWWWWWJp5%dddsddddd&:wjIWWWWWWWWWWWWWWWWWWWWWWWWWWWQQQQQQQQQQ",
"QQQQQQQQQQs&ss&ssssss&s&d+   XRWWWWWWWWWWWWWWWWWWWWWWWWWWWWWWWWWWWWWWWWWRWWWLnzte8wuojHEWWWWWWWWWWWWWWWWWWWWWWWWWWWWWWQQQQQQQQQQ",
"QQQQQQQQQQQs&sss&sss&s&d+   XRWWWWWWWWWWWWWWWWWWWWWWWWWWWWWWWWWWWWWWWWWWWWRWWWWWWWWWWWWWWWWWWWWWWWWWWWWWWWWWWWWWWWWWWQQQQQQQQQQQ",
"QQQQQQQQQQQQ&&sssss&&&d+   XWWWWWWWWWWWWWWWWWWWWWWWWWWWWWWWWWWWWWWWWWWWWWWWWWWRWWWWWWRWWWWWWWWWWWWWWWWWWWWWWWWWWWWWWQQQQQQQQQQQQ",
"QQQQQQQQQQQQQs&sss&&&d+   XWWWWWWWWWWWWWWWWWWWWWWWWWWWWWWWWWWWWWWWWWWWWWWWWWWWWWWWWWWWWWWWWWWWWWWWWWWWWWWWWWWWWWWWWQQQQQQQQQQQQQ",
"QQQQQQQQQQQQQss&s&s&d+   XRWRWWWWWWWWWWWWWWWWWWWWWWWWWWWWWWWWWWWWWWWWWWWWWWWWWWWWWWWWWWWWWWWWWWWWWWWWWWWWWWWWWWWWWWQQQQQQQQQQQQQ",
"QQQQQQQQQQQQQQss&&&d+   XWWRWWWWWWWWWWWWWWWWWWWWWWWWWWWWWWWWWWWWWWWWWWWWWWWWWWWWWWWWWWWWWWWWWWWWWWWWWWWWWWWWWWWWWWQQQQQQQQQQQQQQ",
"QQQQQQQQQQQQQQQ&s&d+   XRWWWWWWWWWWWWWWWWWWWWWWWWWWWWWWWWWWWWWWWWWWWWWWWWWWWWWWWWWWWWWWWWWWWWWWWWWWWWWWWWWWWWWWWWQQQQQQQQQQQQQQQ",
"QQQQQQQQQQQQQQQQ&d+   XWWWWWWWWWWWWWWWWWWWWWWWWWWWWWWWWWWWWWWWWWWWWWWWWWWWWWWWWWWWWWWWWWWWWWWWWWWWWWWWWWWWWWWWWWQQQQQQQQQQQQQQQQ",
"QQQQQQQQQQQQQQQQQ+   XRWWWWWWWWWWWWWWWWWWWWWWWWWWWWWWWWWWWWWWWWWWWWWWWWWWWWWWWWWWWWWWWWWWWWWWWWWWWWWWWWWWWWWWWWQQQQQQQQQQQQQQQQQ",
"QQQQQQQQQQQQQQQQQQ  XWWWWWWWWWWWWWWWWWWWWWWWWWWWWWWWWWWWWWWWWWWWWWWWWWWWWWWWWWWWWWWWWWWWWWWWWWWWWWWWWWWWWWWWWWQQQQQQQQQQQQQQQQQQ",
"QQQQQQQQQQQQQQQQQQQXWWRWWWWWWWWWWWWWWWWWWWWWWWWWWWWWWWWWWWWWWWWWWWWWWWWWWWWWWWWWWWWWWWWWWWWWWWWWWWWWWWWWWWWWWQQQQQQQQQQQQQQQQQQQ",
"QQQQQQQQQQQQQQQQQQQQWWWWWWWWWWWWWWWWWWWWWWWWWWWWWWWWWWWWWWWWWWWWWWWWWWWWWWWWWWWWWWWWWWWWWWWWWWWWWWWWWWWWWWWWQQQQQQQQQQQQQQQQQQQQ",
"QQQQQQQQQQQQQQQQQQQQQWWWWWWWWWWWWWWWWWWWWWWWWWWWWWWWWWWWWWWWWWWWWWWWWWWWWWWWWWWWWWWWWWWWWWWWWWWWWWWWWWWWWWWQQQQQQQQQQQQQQQQQQQQQ",
"QQQQQQQQQQQQQQQQQQQQQQWWWWWWWWWWWWWWWWWWWWWWWWWWWWWWWWWWWWWWWWWWWWWWWWWWWWWWWWWWWWWWWWWWWWWWWWWWWWWWWWWWWWQQQQQQQQQQQQQQQQQQQQQQ",
"QQQQQQQQQQQQQQQQQQQQQQQWWWWWWWWWWWWWWWWWWWWWWWWWWWWWWWWWWWWWWWWWWWWWWWWWWWWWWWWWWWWWWWWWWWWWWWWWWWWWWWWWWQQQQQQQQQQQQQQQQQQQQQQQ",
"QQQQQQQQQQQQQQQQQQQQQQQQWWWWWWWWWWWWWWWWWWWWWWWWWWWWWWWWWWWWWWWWWWWWWWWWWWWWWWWWWWWWWWWWWWWWWWWWWWWWWWWWQQQQQQQQQQQQQQQQQQQQQQQQ",
"QQQQQQQQQQQQQQQQQQQQQQQQQWWWWWWWWWWWWWWWWWWWWWWWWWWWWWWWWWWWWWWWWWWWWWWWWWWWWWWWWWWWWWWWWWWWWWWWWWWWWWWQQQQQQQQQQQQQQQQQQQQQQQQQ",
"QQQQQQQQQQQQQQQQQQQQQQQQQQQWWWWWWWWWWWWWWWWWWWWWWWWWWWWWWWWWWWWWWWWWWWWWWWWWWWWWWWWWWWWWWWWWWWWWWWWWWQQQQQQQQQQQQQQQQQQQQQQQQQQQ",
"QQQQQQQQQQQQQQQQQQQQQQQQQQQQWWWWWWWWWWWWWWWWWWWWWWWWWWWWWWWWWWWWWWWWWWWWWWWWWWWWWWWWWWWWWWWWWWWWWWWWQQQQQQQQQQQQQQQQQQQQQQQQQQQQ",
"QQQQQQQQQQQQQQQQQQQQQQQQQQQQQQWWWWWWWWWWWWWWWWWWWWWWWWWWWWWWWWWWWWWWWWWWWWWWWWWWWWWWWWWWWWWWWWWWWWQQQQQQQQQQQQQQQQQQQQQQQQQQQQQQ",
"QQQQQQQQQQQQQQQQQQQQQQQQQQQQQQQWWWWWWWWWWWWWWWWWWWWWWWWWWWWWWWWWWWWWWWWWWWWWWWWWWWWWWWWWWWWWWWWWWQQQQQQQQQQQQQQQQQQQQQQQQQQQQQQQ",
"QQQQQQQQQQQQQQQQQQQQQQQQQQQQQQQQQWWWWWWWWWWWWWWWWWWWWWWWWWWWWWWWWWWWWWWWWWWWWWWWWWWWWWWWWWWWWWWQQQQQQQQQQQQQQQQQQQQQQQQQQQQQQQQQ",
"QQQQQQQQQQQQQQQQQQQQQQQQQQQQQQQQQQQWWWWWWWWWWWWWWWWWWWWWWWWWWWWWWWWWWWWWWWWWWWWWWWWWWWWWWWWWWQQQQQQQQQQQQQQQQQQQQQQQQQQQQQQQQQQQ",
"QQQQQQQQQQQQQQQQQQQQQQQQQQQQQQQQQQQQQWWWWWWWWWWWWWWWWWWWWWWWWWWWWWWWWWWWWWWWWWWWWWWWWWWWWWWQQQQQQQQQQQQQQQQQQQQQQQQQQQQQQQQQQQQQ",
"QQQQQQQQQQQQQQQQQQQQQQQQQQQQQQQQQQQQQQQWWWWWWWWWWWWWWWWWWWWWWWWWWWWWWWWWWWWWWWWWWWWWWWWWWQQQQQQQQQQQQQQQQQQQQQQQQQQQQQQQQQQQQQQQ",
"QQQQQQQQQQQQQQQQQQQQQQQQQQQQQQQQQQQQQQQQQQWWWWWWWWWWWWWWWWWWWWWWWWWWWWWWWWWWWWWWWWWWWWQQQQQQQQQQQQQQQQQQQQQQQQQQQQQQQQQQQQQQQQQQ",
"QQQQQQQQQQQQQQQQQQQQQQQQQQQQQQQQQQQQQQQQQQQQWWWWWWWWWWWWWWWWWWWWWWWWWWWWWWWWWWWWWWWWQQQQQQQQQQQQQQQQQQQQQQQQQQQQQQQQQQQQQQQQQQQQ",
"QQQQQQQQQQQQQQQQQQQQQQQQQQQQQQQQQQQQQQQQQQQQQQQQWWWWWWWWWWWWWWWWWWWWWWWWWWWWWWWWQQQQQQQQQQQQQQQQQQQQQQQQQQQQQQQQQQQQQQQQQQQQQQQQ",
"QQQQQQQQQQQQQQQQQQQQQQQQQQQQQQQQQQQQQQQQQQQQQQQQQQQQWWWWWWWWWWWWWWWWWWWWWWWWQQQQQQQQQQQQQQQQQQQQQQQQQQQQQQQQQQQQQQQQQQQQQQQQQQQQ"
};
