/* XPM */
static char *_259862dae5d4cc48891de260d94e092[] = {
/* columns rows colors chars-per-pixel */
"64 64 76 1 ",
"  c #100700",
". c #110800",
"X c #000011",
"o c #301700",
"O c #341900",
"+ c #381C00",
"@ c #000034",
"# c #00003F",
"$ c #7F407F",
"% c #BD6102",
"& c #BF603F",
"* c #CA6704",
"= c #CC6A04",
"- c #DF711F",
"; c #E87401",
": c #ED7B03",
"> c #EF770F",
", c #FD7F01",
"< c #F47B0A",
"1 c #EC7612",
"2 c #E4731A",
"3 c #D76D27",
"4 c #DA6E24",
"5 c #D36B2B",
"6 c #DD7121",
"7 c #C76437",
"8 c #CA6534",
"9 c #CE6830",
"0 c #C1623D",
"q c #9F515F",
"w c #AF594F",
"e c #BC5E42",
"r c #B55C49",
"t c #AB5653",
"y c #AC5852",
"u c #A2515C",
"i c #974D67",
"p c #9C4D62",
"a c #944A6A",
"s c #9E5060",
"d c #874377",
"f c #8A4573",
"g c #84427A",
"h c #F78007",
"j c #FF8000",
"k c #FF8900",
"l c #6F378F",
"z c #7C3E82",
"x c #733A8B",
"c c #673397",
"v c #6B3693",
"b c #63319B",
"n c #4F26AD",
"m c #572BA7",
"M c #5B2EA3",
"N c #542AAA",
"B c #4925B5",
"V c #4321BB",
"C c #0402CA",
"Z c #1F0FDF",
"A c #2F17CF",
"S c #2F18CF",
"D c #3B1DC3",
"F c #341ACA",
"G c #2713D7",
"H c #2A15D4",
"J c #2211DC",
"K c #0301ED",
"L c #0F07EF",
"P c #160BE7",
"I c #1B0DE3",
"U c #140AEA",
"Y c #0703F7",
"T c #0B05F3",
"R c #0000FF",
"E c None",
/* pixels */
"EEEEEEEEEEEEEEEEEEEEEEEEE,jjj,jj,j,jj,jEEEEEEEEEEEEEEEEEEEEEEEEE",
"EEEEEEEEEEEEEEEEEEEEEjj,jjj,,,jjjjj,,jjj,jjEEEEEEEEEEEEEEEEEEEEE",
"EEEEEEEEEEEEEEEEEEE,,j,j,jjjjjjj,j,jjj,jj,j,jEEEEEEEEEEEEEEEEEEE",
"EEEEEEEEEEEEEEEEEjjjj,jjjjj,j,jjjjjjj,jjjj,,jjjEEEEEEEEEEEEEEEEE",
"EEEEEEEEEEEEEEEjj,,j,j,jjjj,jjj,,j,jjjj,jj,jj,,jjEEEEEEEEEEEEEEE",
"EEEEEEEEEEEEEEjj,jjjjjjjj,jj,jjjjjjj,jjjj,jj,jj,jjEEEEEEEEEEEEEE",
"EEEEEEEEEEEE,j,j,j,jjjjjjjjjj,j,jjjjj,j,jjjjjjjj,,j,EEEEEEEEEEEE",
"EEEEEEEEEEE,,,j,jjjjj,,jj,j,jjjjj,,jjjjjj,jj,j,jjj,j,EEEEEEEEEEE",
"EEEEEEEEEEjj,j,jjj,jj,jj,jj,j,j,jjjjjjjjjjjjjjjj,,,,k%EEEEEEEEEE",
"EEEEEEEEEj,jjjjjj,jjjj,jjjjjjjjjj,j,,j,j,jj,j,,j,,,k* #EEEEEEEEE",
"EEEEEEEEj,,jj,,jjjjjjjjjjjjjj,jjjjjjjjj,,jjjjj,,j,k* @KREEEEEEEE",
"EEEEEEEj,jjjjjjjj,j,,j,jj,,jjjj,,j,j,jjjjjj,,,,,,k*.@KRRREEEEEEE",
"EEEEEEjj,j,jjjj,jj,jj,j,jjjjjj,jjjjj,jjjjjj,j,,,k* @KRRRRREEEEEE",
"EEEEEE,,jjjj,jjjjjjjjjjjj,j,j,jj,jj,jjj,j,jj,j,k* @KRRRRRREEEEEE",
"EEEEEj,j,j,jj,j,j,jjj,jjjjjjjjjjj,jj,j,jjjj,j,k*.@KRRRRRRRREEEEE",
"EEEEjj,,jjjjjjjjj,,j,,,j,jj,j,j,jjjjjjjjj,,j,k* @KRRRRRRRRRREEEE",
"EEEEj,jj,jjjj,,,,,jjjj,,,,,,jjjjjjjj,j,j,,,,k*.@KRRRRRRRRRRREEEE",
"EEE,j,,jjjj,j,,jkj,<<jkk,,,,,jjj,j,jjjjj,,,k*.@KRRRRRRRRRRRRREEE",
"EEEj,jjj,j,,,,k2fBHIZFbejk,,,jj,jj,jjj,,j,k* @KRRRRRRRRRRRRRREEE",
"EEjjjj,jj,j,jkdLRRRRRRRRV3k<j,jj,jjjj,,,,k*.@KRRRRRRRRRRRRRRRREE",
"EEj,jjj,jj,,jmRRRUVNBGRRRLrk,,j,j,jj,,j,k* @KRRRRRRRRRRRRRRRRREE",
"EEj,,jjj,j,kcRYLf1jjk,7BRRY7k,jjjj,j,,,k* @KRRRRRRRRRRRRRRRRRREE",
"Ej,j,jjjj,kwRRP9kk,,,jkjdRD>,,jjjjj,,,k*.@KRRRRRRRRRRRRRRRRRRRRE",
"Ej,jjjj,jjjFRRrk<j,,,,,,ks2k,,,jjj,j,k*.@KRRRRRRRRRRRRRRRRRRRRRE",
"Ej,jjj,j,krRRNk<jjjjjjj,,kj,j,jj,,,,j*.@KRRRRRRRRRRRRRRRRRRRRRRE",
"Ejj,j,j,,kxRRyk,jjjjjj,j,,,,,jjj,j,k= @KRYRRRRRRRRRRRRRRRRRRRRRE",
"jjjjjjjj,kVRT6jjj,j,,<,,<,<,j,j,j,k:o@KRRRRRRRRRRRRRRRRRRRRRRRRR",
"j,,jj,j,,,ARI>j,jj,jjkkkkkkk,j,,,j:O@KRRRRRRRRRRRRRRRRRRRRRRRRRR",
"j,jjj,j,,,ARI<j,j,,,az$zzzxtjjj,k:O@KRYRRRYRRRRRRRRRRRRRRRRRRRRR",
",j,jjjj,,jDRL2j,,,j>LRRRRYRvk,,j:O@KRRRRRRRRRRRRRRRRRRRRRRRRRRRR",
"j,jjjjj,,kMRRrk,j,k-HGGGPYRuk<k:O@KRRPbattibJRRRRRRRRRRRRRRRRRRR",
",,jjj,j,,ksRRMk,,,,,,<<kmRY5jj:O@KRLf<kkkkkk<wSRRRRRRRRRRRRRRRRR",
"j,jj,j,j,j1PRRrk<hj,j,k5LRVjk:O@KRZ5kkk<26>jkkjVRRRRRRRRRRRRRRRR",
"j,,jjjjj,,kfRRL&kjjjjk1FRRrk:O@KRP4kj2lJTTPVu<kVRRRRRRRRRRRRRRRR",
",j,jjj,j,,jknRYYb0215aZRRbk:O@KRRykj7PRRRRRRRD3GRRRRRRRRRRRRRRRR",
"j,jjj,jjjjjjhmRRRRLUYRRRnh:O@KRRVk,-PRYRRRRRYRPTRRRRRRRRRRRRRRRR",
"j,jjjjjjj,j,jjiJRRRRRRPfk:O@KRYRykkMRYRRRRRRRRRRRRRRRRRRRRRRRRRR",
"j,,j,j,jj,,j,,k<&dxczy>k:O@KRRRL2j6TRRRRRRRRRRRRRRRRRRRRRRRRRRRR",
"E,jjjjj,j,j,j,,jkkkkkkk:OXCRRYRFjktRRRRRRRRRRRRRRRRRRRRRRRRRRRRE",
"Ej,j,jjjjjjjj,j,,<,,<j:OXCRRRRRBjkgRYRRRRRRRRRRRRRRRRRRRRRRRRRRE",
"Ej,jj,jj,jjjjj,j,,j,j:OXCRYRRRRmjkzRRRRRRRRRRRRRRRRRRRRRRRRRRRRE",
"Ej,jjj,jjjj,j,jj,j,j:OXCRRRRRYRBkkgRYRRRRRRRRRRRRRRRRRRRRRRRRRRE",
"EEj,jjjjjjj,jjj,j,k:OXCRRRRRRRRS,ktRYRRRRRRRRRRRRRRRRRRRRRRRRREE",
"EEj,,j,j,jjjj,,j,j:oXCRRRRRRRRRY4k2PRRRRRRRRRRRRRRRRRRRRRRRRRREE",
"EEj,jjj,jjjjj,,,j:OXCRYRRRRRRRYRikk$RYRRRRRRYRRRRRRRRRRRRRRRRREE",
"EEEj,jjj,j,j,j,j:OXCRRRRRRRRRRRRH<jhmRRRRRRRRZTRRRRRRRRRRRRRREEE",
"EEEjjjjjjjj,j,k:OXCRRRRRRRRRRRRRRxk,jpAYRRRZg8TRRRRRRRRRRRRRREEE",
"EEEEj,j,jj,j,j:OXCRYRRRRRRRRRRRRRRfkkk,37e5>k0RRRRRRRRRRRRRREEEE",
"EEEEjj,j,,,,j:OXCRYRRRRRRRRRRRRRRRRM-kkkkkkkkiRRRRRRRRRRRRRREEEE",
"EEEEEj,j,j,j:OXCRRRRRRRRRRRRRRRRRRRRLms&87rgVTRRRRRRRRRRRRREEEEE",
"EEEEEE,,j,k:OXCRRRRRRRRRRRRRRRRRRRRYRRRRRRRRRRRRRRRRRRRRRREEEEEE",
"EEEEEEjj,j:OXCRRRRRRRRRRRRRRRRRRRRRRRRYRRRRYYRRRRRRRRRRRRREEEEEE",
"EEEEEEE,k:OXCRYRRRRRRRRRRRRRRRRRRRRRRRRRRRRRRRRRRRRRRRRRREEEEEEE",
"EEEEEEEE;+XCRRRRRRRRRRRRRRRRRRRRRRRRRRRRRRRRRRRRRRRRRRRREEEEEEEE",
"EEEEEEEEEXCRRRRRRRRRRRRRRRRRRRRRRRRRRRRRRRRRRRRRRRRRRRREEEEEEEEE",
"EEEEEEEEEERRRRRRRRRRRRRRRRRRRRRRRRRRRRRRRRRRRRRRRRRRRREEEEEEEEEE",
"EEEEEEEEEEERRRRRRRRRRRRRRRRRRRRRRRRRRRRRRRRRRRRRRRRRREEEEEEEEEEE",
"EEEEEEEEEEEERRRRRRRRRRRRRRRRRRRRRRRRRRRRRRRRRRRRRRRREEEEEEEEEEEE",
"EEEEEEEEEEEEEERRRRRRRRRRRRRRRRRRRRRRRRRRRRRRRRRRRREEEEEEEEEEEEEE",
"EEEEEEEEEEEEEEERRRRRRRRRRRRRRRRRRRRRRRRRRRRRRRRRREEEEEEEEEEEEEEE",
"EEEEEEEEEEEEEEEEERRRRRRRRRRRRRRRRRRRRRRRRRRRRRREEEEEEEEEEEEEEEEE",
"EEEEEEEEEEEEEEEEEEERRRRRRRRRRRRRRRRRRRRRRRRRREEEEEEEEEEEEEEEEEEE",
"EEEEEEEEEEEEEEEEEEEEERRRRRRRRRRRRRRRRRRRRRREEEEEEEEEEEEEEEEEEEEE",
"EEEEEEEEEEEEEEEEEEEEEEEEERRRRRRRRRRRRRREEEEEEEEEEEEEEEEEEEEEEEEE"
};
