/* XPM */
static char *_810b0217ce44916c3481bbf5f10b448[] = {
/* columns rows colors chars-per-pixel */
"32 32 180 2 ",
"   c #0A043F",
".  c #0A053F",
"X  c #080342",
"o  c #0A0440",
"O  c #0B0542",
"+  c #000056",
"@  c #000057",
"#  c #090454",
"$  c #0A0556",
"%  c #0B0556",
"&  c #000058",
"*  c #06035A",
"=  c #0A0559",
"-  c #0C0559",
";  c #7F3F7F",
":  c #9E5001",
">  c #A65400",
",  c #A85600",
"<  c #B95C00",
"1  c #BC6000",
"2  c #BE6100",
"3  c #BF6100",
"4  c #CC6600",
"5  c #CC6700",
"6  c #C96900",
"7  c #CC6800",
"8  c #F77B03",
"9  c #FA7D00",
"0  c #FB7E03",
"q  c #FC7D00",
"w  c #FC7E00",
"e  c #FD7E01",
"r  c #FD7F01",
"t  c #FE7F00",
"y  c #FF7F00",
"u  c #FC7E02",
"i  c #FC7F02",
"p  c #FA7D04",
"a  c #F87C06",
"s  c #F67B08",
"d  c #F2790C",
"f  c #F0780E",
"g  c #F27E0C",
"h  c #ED7711",
"j  c #ED7A10",
"k  c #E97915",
"l  c #E3721B",
"z  c #E67318",
"x  c #E5731A",
"c  c #E2761C",
"v  c #CE672E",
"b  c #D0682E",
"n  c #C86836",
"m  c #C56239",
"M  c #C56439",
"N  c #B45B4A",
"B  c #B05B4E",
"V  c #AD5651",
"C  c #AE5650",
"Z  c #AC5652",
"A  c #A3515B",
"S  c #A65358",
"D  c #A1515D",
"F  c #A2525C",
"G  c #A0505E",
"H  c #B05A52",
"J  c #974C67",
"K  c #9B4D63",
"L  c #9D4E61",
"P  c #954B69",
"I  c #9E5260",
"U  c #8D4571",
"Y  c #8D4671",
"T  c #8A4574",
"R  c #82407C",
"E  c #80407E",
"W  c #B45A60",
"Q  c #C36849",
"!  c #FD8001",
"~  c #FE8000",
"^  c #FF8000",
"/  c #FF8100",
"(  c #FC8200",
")  c #FE8200",
"_  c #FF8300",
"`  c #FE8400",
"'  c #FF8400",
"]  c #FE8500",
"[  c #FF8500",
"{  c #FE8600",
"}  c #FF8600",
"|  c #FF8700",
" . c #FC8702",
".. c #FD8901",
"X. c #FF8800",
"o. c #FE8900",
"O. c #FF8900",
"+. c #FF8A00",
"@. c #FF8B00",
"#. c #FF8A01",
"$. c #FF8902",
"%. c DarkOrange",
"&. c #FF8E00",
"*. c #FA8A04",
"=. c #FF8804",
"-. c #FF8904",
";. c #FF8805",
":. c #FF8A04",
">. c #FF9100",
",. c #FF9102",
"<. c #FF9800",
"1. c #6F388F",
"2. c #7C3E82",
"3. c #793E85",
"4. c #763B88",
"5. c #743A8A",
"6. c #753C89",
"7. c #6E3790",
"8. c #693595",
"9. c #683496",
"0. c #653399",
"q. c #673399",
"w. c #7E3F98",
"e. c #5329A7",
"r. c #582CA6",
"t. c #4E27B0",
"y. c #4C26B2",
"u. c #4623B8",
"i. c #4120BD",
"p. c #4121BD",
"a. c #4221BC",
"s. c #7E4080",
"d. c #3219C7",
"f. c #3B1DC3",
"g. c #3B1EC3",
"h. c #3E1FC0",
"j. c #3C1EC2",
"k. c #391CC5",
"l. c #351AC9",
"z. c #351BC9",
"x. c #2A15D4",
"c. c #2A16D4",
"v. c #2312D9",
"b. c #2512D9",
"n. c #2412DA",
"m. c #0100E4",
"M. c #0F07EF",
"N. c #1B0DE3",
"B. c #1E0EE0",
"V. c #160BE8",
"C. c #1109EC",
"Z. c #1108ED",
"A. c #0000F4",
"S. c #0000F5",
"D. c #0100F5",
"F. c #0703F7",
"G. c #0C06F2",
"H. c #0904F5",
"J. c #0A05F4",
"K. c #0804F6",
"L. c #0000F8",
"P. c #0100FB",
"I. c #0301FB",
"U. c #0603F8",
"Y. c #0402FA",
"T. c #0502FA",
"R. c #0402FB",
"E. c #0000FC",
"W. c #0000FD",
"Q. c #0100FD",
"!. c #0201FC",
"~. c #0000FE",
"^. c #0100FE",
"/. c #0101FE",
"(. c blue",
"). c #0100FF",
"_. c #0201FE",
"`. c #0201FF",
"'. c #0402FC",
"]. c None",
/* pixels */
"].].].].].].].].].].].^ ^ ^ ^ ^ ^ ^ ^ ^ ^ ].].].].].].].].].].].",
"].].].].].].].].].^ ^ ^ y y ^ ^ ^ ^ y y ^ ^ ^ ].].].].].].].].].",
"].].].].].].].^ ^ y ^ ^ ^ ^ ^ ^ ^ ^ ^ ^ ^ ^ y ^ ^ ].].].].].].].",
"].].].].].].^ ^ ^ ^ ^ ^ ^ ^ ^ ^ ^ ^ ^ ^ ^ ^ ! ^ ^ 0 ].].].].].].",
"].].].].].^ y ^ ^ ^ ^ ^ ^ ^ ^ ^ ^ ^ ^ ^ ^ y ^ ! 0 ..: ].].].].].",
"].].].].^ ^ ^ ^ ^ ^ ^ ^ ^ ^ ^ ^ ^ ^ ^ ^ y ^ y 0 ..> + L.].].].].",
"].].].^ y ^ y ^ ^ 0 y y ^ y ^ ^ ^ ^ ^ y ^ ! 0 :.> & /././.].].].",
"].].^ y y ^ y 0 ! ^ ^ 0 0 ^ ^ 0 ^ ^ y ^ ^ 9 ..> & /././././.].].",
"].].^ y y y 0 { { s a { { y y y ^ y y y 0 :.> + /./././././.].].",
"].^ ^ ^ y y { G b.F.K.g.M { y y ^ ^ ^ 0 ..> & /./././././././.].",
"].^ y y y { 1./.r.D P k./.L { a y ^ 0 ..> & /./.L././././././.].",
"].^ ^ 0 ..N /.S &.......R Z { y y 0 :.> & /./././././././././.].",
"^ ^ y 0 { p.z...a 0 a 0 { { y ^ 9 :.> + /./.L./././././././././.",
"^ y ^ ^ ^ Z.4...a y { { { ^ ^ 0 :.1 # /././.'./././././././././.",
"^ ^ y ^ y M.3...^ d g.c.l.8.y :.1 - /./././././././././././././.",
"^ y y 0 { l.g...y h R T F.e.>.< - /.q.v x v 4.J././././././././.",
"^ ^ ^ 0 ..F /.A ..*.<.n /.Q 5 * /.H &.Z 2.L ^ I /./././././././.",
"^ ^ 0 ^ ^ ^ 9./.g.5.y./.w.5 $ /.2...h./././.N.u././././././././.",
"^ y ^ ^ ^ ^ { Z p.b.l.W 5 $ /.U.j J /.U.L.'././././././././././.",
"^ ^ ^ 0 ^ y 0 { ..^ ,.6 O A./.v.{ y./.U././././././././././././.",
"].^ ^ ^ y ^ 0 0 9 ;.< X A.'./.c.{ a./././././././././././././.].",
"].^ y ^ ^ y ^ 0 :.1 X A./.L./.Z.^ 7./.U.'.L./././././././././.].",
"].^ ^ ^ y ^ 0 :.6 . A./././././.B k Z./././.F.U./././././././.].",
"].].^ y y 0 { <   A././././././.B.c g U q.U m K././././././.].].",
"].].^ ^ 0 :.< . A././././././././.V.J x f l ; /././././././.].].",
"].].].y ..1 O A./././././././././././././././././././././.].].].",
"].].].].< . A.'././././././././././.L./././././././././.].].].].",
"].].].].].m./././././././././././././././././././././.].].].].].",
"].].].].].]././././././././././././././././././././.].].].].].].",
"].].].].].].]././././././././././././././././././.].].].].].].].",
"].].].].].].].].]././././././././././././././.].].].].].].].].].",
"].].].].].].].].].].]././././././././././.].].].].].].].].].].]."
};
