/* XPM */
static char *_f142d12affc4b4df89cb530cad5631a[] = {
/* columns rows colors chars-per-pixel */
"16 16 107 2 ",
"   c #381C5E",
".  c #2F166B",
"X  c #2F176B",
"o  c #371B62",
"O  c #321867",
"+  c #371B64",
"@  c #31186F",
"#  c #33196E",
"$  c #3A1D69",
"%  c #28137C",
"&  c #4C244F",
"*  c #422160",
"=  c #A6533D",
"-  c #E37500",
";  c #EA7900",
":  c #EC7A00",
">  c #EE7C00",
",  c #EF7C00",
"<  c #F07800",
"1  c #F27D00",
"2  c #FB7D01",
"3  c #FA7F02",
"4  c #FB7E03",
"5  c #FC7D00",
"6  c #FD7E00",
"7  c #FD7E01",
"8  c #FD7F01",
"9  c #FE7E00",
"0  c #FE7F00",
"q  c #FC7E02",
"w  c #FA7D04",
"e  c #FA7F04",
"r  c #E2711C",
"t  c #E2721C",
"y  c #DA7020",
"u  c #DB7023",
"i  c #DE7020",
"p  c #9D515F",
"a  c #9F525F",
"s  c #B1584D",
"d  c #A35257",
"f  c #A85758",
"g  c #804067",
"h  c #9D4E61",
"j  c #9E4F60",
"k  c #92496F",
"l  c #9C5162",
"z  c #874377",
"x  c #894475",
"c  c #84427A",
"v  c #84427B",
"b  c #81407D",
"n  c #924977",
"m  c #FE8000",
"M  c #FF8000",
"N  c #FD8301",
"B  c #FF8200",
"V  c #FF8300",
"C  c #FC8303",
"Z  c #FF8203",
"A  c #FF8400",
"S  c #FF8500",
"D  c #FF8403",
"F  c #FF8503",
"G  c #FD8603",
"H  c #FF8305",
"J  c #FF8404",
"K  c #FA8800",
"L  c #FF8900",
"P  c #FE8A00",
"I  c #FF8A00",
"U  c #FF8E00",
"Y  c #FF9000",
"T  c #7B3D83",
"R  c #7E3F80",
"E  c #7A3D85",
"W  c #7D3E85",
"Q  c #723989",
"!  c #73398B",
"~  c #793D8F",
"^  c #683496",
"/  c #4F27AF",
"(  c #5229AA",
")  c #4723B7",
"_  c #4824B5",
"`  c #4F29B6",
"'  c #4422BB",
"]  c #381CC6",
"[  c #3018CC",
"{  c #2D17D3",
"}  c #2613D8",
"|  c #1A0DE3",
" . c #0B05F3",
".. c #0000F9",
"X. c #0301FB",
"o. c #0502FB",
"O. c #0100FC",
"+. c #0000FD",
"@. c #0100FD",
"#. c #0201FC",
"$. c #0301FD",
"%. c #0000FE",
"&. c #0100FE",
"*. c blue",
"=. c #0301FE",
"-. c #0402FC",
";. c None",
/* pixels */
";.;.;.;.;.M M M M M M ;.;.;.;.;.",
";.;.;.M M M M M M 8 M 8 H ;.;.;.",
";.;.M 8 w w 8 M 8 8 8 F - @ ;.;.",
";.M M M P U M M M 8 M ; . $.$.;.",
";.8 A u b z t M w F ; . $.$.$.;.",
"8 M t _ s h v M H ; X $.$.$.$.$.",
"w P x l Y w C H > % $.$.$.$.$.$.",
"w P v l U Q ` 1 @ _ E [ $.$.$.$.",
"8 A u ' d ~ g $ E k / Q $.$.$.$.",
"M 8 A y n = + | f $.$.$.$.$.$.$.",
"8 M w A K & $.{ p $.$.$.$.$.$.$.",
";.8 F : + $.$.$.h T / ] $.$.$.;.",
";.M <   $.$.$.$. .^ T } $.$.$.;.",
";.;.* ..$.$.$.$.$.$.$.$.$.$.;.;.",
";.;.;.$.$.$.$.$.$.$.$.$.$.;.;.;.",
";.;.;.;.;.$.$.$.$.$.$.;.;.;.;.;."
};
